<svg width="214" height="38" fill="none"
  xmlns="http://www.w3.org/2000/svg">
  <g clip-path="url(#clip0)" fill="#1C1C1C">
    <path d="M0 .28125h3.47819L11.2583 14.1891V.28125h3.4782V20.3913h-3.4782L3.47819 6.4834v13.9079H0V.28125zM27.9169 7.98762c0-2.91313.4576-4.60463 1.6475-5.92024C30.9374.657804 32.4934 0 35.2394 0c2.8374 0 4.5765.751776 5.858 2.3493 1.0068 1.31561 1.3729 2.81916 1.3729 5.54435v4.79255c0 3.0071-.4576 4.6046-1.6475 5.9203-1.2815 1.4095-3.0206 2.0673-5.5834 2.0673-2.8375 0-4.5766-.7517-5.9496-2.3493-.9153-1.3156-1.3729-2.8191-1.3729-5.5443V7.98762zm10.8922.28192c0-3.85286-1.0069-5.26244-3.6613-5.26244-2.6544 0-3.6612 1.50356-3.6612 5.26244v4.13476c0 3.8529 1.0068 5.2624 3.6612 5.2624s3.6613-1.5035 3.6613-5.2624V8.26954zM53.3625.28125h3.5698l4.5765 15.12945L65.9939.28125h3.5697L62.9733 20.3913h-3.112L53.3625.28125zM81.6461.28125h12.0821v3.0071h-8.5124v5.45038h7.231v3.00707h-7.231v5.6384h8.604v3.0071H81.6461V.28125zM106.359.28125h3.57V17.3842h8.604v3.0071h-12.174V.28125zM132.354 15.5991c.824 1.5036 2.288 2.1614 4.485 2.1614 2.289 0 3.478-.9397 3.478-2.8192 0-.8457-.366-1.5975-.915-2.0674-.641-.3758-.641-.3758-3.387-1.1276-4.027-1.0337-5.583-2.72521-5.583-5.92026 0-3.66491 2.288-5.73229 6.407-5.73229 3.021 0 5.034 1.03369 6.224 3.0071l-2.654 1.78547c-.915-1.22163-2.014-1.87944-3.661-1.87944-1.831 0-2.929.93972-2.929 2.63122 0 1.69149.915 2.53724 3.936 3.28902 2.562.6578 3.112.84575 4.118 1.50358 1.282.9397 1.923 2.3493 1.923 4.4167 0 3.9468-2.38 5.9202-6.957 5.9202-3.569 0-5.858-1.1277-7.231-3.383l2.746-1.7855zM156.061.28125h3.569v8.45748h6.682V.28125h3.57V20.3913h-3.57v-8.6455h-6.682v8.6455h-3.569V.28125zM183.428.28125h3.57V20.3913h-3.57V.28125zM204.206 20.3913h-3.569V.28125h6.59c2.746 0 4.21.46986 5.309 1.59752C213.543 3.00644 214 4.41602 214 6.67135c0 2.44327-.549 3.94685-1.739 5.07445-1.098 1.0337-2.471 1.4096-5.034 1.4096h-3.021v7.2359zm3.021-10.243c2.288 0 3.112-1.03368 3.112-3.47695 0-2.44328-.915-3.47697-3.112-3.47697h-3.112v6.85992h3.112v.094z"/>
  </g>
  <path d="M0 30.121h3.41873c.58491 0 1.03872.1647 1.36144.4942.32943.3294.49415.7664.49415 1.311 0 .2689-.03698.4975-.11093.6857-.06724.1883-.16136.3429-.28238.4639-.11429.1211-.25212.2118-.41347.2723-.15463.0538-.32271.0841-.50424.0908v.0605c.16808 0 .34288.0303.52441.0908.18825.0605.35969.158.51432.2924.15463.1278.28237.2958.38322.5043.10757.2084.16136.4639.16136.7664 0 .2757-.04707.5379-.14119.7866-.0874.242-.21178.4538-.37314.6353-.16135.1816-.35296.3261-.57483.4337-.22186.1008-.46389.1513-.7261.1513H0V30.121zm1.53288 5.7483h1.76483c.20169 0 .35969-.0538.47398-.1613.12102-.1143.18153-.2723.18153-.474v-.3429c0-.2017-.06051-.3563-.18153-.4639-.11429-.1143-.27229-.1714-.47398-.1714H1.53288v1.6135zm0-2.864h1.5228c.20169 0 .35968-.0572.47398-.1715.11429-.1143.17144-.2723.17144-.474v-.3025c0-.2017-.05715-.3597-.17144-.474-.1143-.1143-.27229-.1714-.47398-.1714h-1.5228v1.5934zM9.7922 30.121v4.3163c0 .4975.09749.8706.2925 1.1194.1949.242.521.363.9782.363.4572 0 .7832-.121.9782-.363.195-.2488.2925-.6219.2925-1.1194V30.121h1.4925v4.1549c0 .5177-.0504.9682-.1513 1.3514-.0941.3765-.2521.6891-.474.9379-.2218.242-.5076.4235-.8572.5445-.3496.1143-.7765.1715-1.2807.1715-.5043 0-.9312-.0572-1.28078-.1715-.34961-.121-.63534-.3025-.85721-.5445-.22186-.2488-.38322-.5614-.48406-.9379-.09413-.3832-.14119-.8337-.14119-1.3514V30.121H9.7922zM18.6802 37.1602V34.407L16.27 30.121h1.7144l1.5127 2.8036h.0202l1.4522-2.8036h1.664l-2.4103 4.2759v2.7633h-1.543zM33.2501 36.5853c-.2219.1816-.4908.3429-.8068.4841-.316.1412-.7194.2118-1.2102.2118-.3899 0-.7328-.0471-1.0286-.1412-.2958-.1009-.5446-.2387-.7463-.4135-.2017-.1815-.3563-.3899-.4639-.6252-.1008-.2421-.1512-.5043-.1512-.7866 0-.2421.0336-.4572.1008-.6455.074-.1882.1714-.3597.2925-.5143.1277-.1546.279-.2958.4538-.4235.1748-.1278.363-.2522.5647-.3732-.1008-.1076-.1983-.2252-.2924-.3529-.0942-.1278-.1782-.2623-.2522-.4034-.0739-.1412-.1344-.2891-.1815-.4438-.0403-.1546-.0605-.3126-.0605-.4739 0-.2286.0471-.4438.1412-.6455.1008-.2084.242-.3899.4236-.5445.1882-.1547.4101-.2757.6655-.3631.2622-.0874.5547-.1311.8774-.1311.2891 0 .5547.037.7967.1109.2488.0673.4639.1715.6454.3127.1816.1344.3227.3025.4236.5042.1076.2017.1613.4303.1613.6858 0 .2218-.0369.4235-.1109.605-.0739.1816-.1748.3496-.3025.5043-.1278.1479-.279.2857-.4538.4135-.1681.1277-.3463.2487-.5345.363l1.0891 1.1799c.0874-.2151.1547-.4437.2017-.6857.0471-.2421.0773-.4808.0908-.7161h1.6841v1.2405h-.6353c-.1143.4302-.2656.8034-.4538 1.1194l1.4018 1.5228h-1.8052l-.5244-.5749zm-1.7144-5.4457c-.1815 0-.3362.0504-.4639.1512-.121.1009-.1815.2421-.1815.4236v.0403c0 .1345.0437.269.1311.4034.0874.1278.2353.3093.4437.5446.2353-.1412.4135-.2824.5345-.4235.121-.148.1815-.3228.1815-.5245v-.0403c0-.1815-.0639-.3227-.1916-.4236-.121-.1008-.2723-.1512-.4538-.1512zm-.0807 4.9012c.3967 0 .7362-.0942 1.0186-.2824l-1.4825-1.6035c-.2286.1345-.3899.2723-.4841.4135-.0941.1412-.1412.3025-.1412.4841v.1008c0 .2555.0908.4673.2723.6353.1816.1681.4538.2522.8169.2522zM44.273 37.2812c-.6185 0-1.1429-.1042-1.5732-.3126-.4303-.2152-.7967-.4908-1.0992-.827l1.0084-1.0186c.4774.5379 1.0657.8068 1.7649.8068.3765 0 .6555-.0773.837-.2319.1815-.1547.2723-.3597.2723-.6152 0-.195-.0538-.3563-.1614-.4841-.1075-.1344-.326-.2252-.6555-.2722l-.6958-.0908c-.7463-.0941-1.2942-.3194-1.6438-.6757-.3429-.3563-.5144-.8303-.5144-1.4219 0-.316.0605-.6051.1816-.8673.121-.2622.2924-.4875.5143-.6757.2286-.1882.5042-.3328.8269-.4336.3295-.1076.7026-.1614 1.1194-.1614.5312 0 .9984.084 1.4018.2521.4034.1681.7497.4135 1.0387.7362l-1.0185 1.0286c-.1681-.1949-.3731-.3529-.6152-.4739-.2353-.1278-.5345-.1916-.8975-.1916-.3429 0-.5984.0605-.7665.1815-.168.121-.2521.2891-.2521.5042 0 .2421.0639.4169.1916.5244.1345.1076.3496.1849.6455.232l.6958.1109c.7261.1143 1.264.3395 1.6136.6757.3496.3294.5244.8.5244 1.4118 0 .3362-.0605.6455-.1816.9278-.121.2824-.2991.5244-.5345.7261-.2285.2017-.5143.3597-.8572.474-.3428.1076-.7328.1614-1.1698.1614zM49.9005 37.1602V30.121h4.7903v1.3615h-3.2574v1.4421h2.7935v1.3513h-2.7935v1.5228h3.2574v1.3615h-4.7903zM57.6398 37.1602V30.121h1.5329v5.6777h2.6825v1.3615h-4.2154zM64.601 37.1602V30.121h1.5329v5.6777h2.6825v1.3615H64.601zM79.8955 37.1602l-.5042-1.6741h-2.3497l-.5043 1.6741h-1.553l2.3195-7.0392h1.8959l2.2892 7.0392h-1.5934zm-1.6639-5.6475h-.0505l-.7765 2.6725h1.6136l-.7866-2.6725zM85.2824 30.121v4.3163c0 .4975.0974.8706.2924 1.1194.195.242.5211.363.9782.363.4572 0 .7833-.121.9783-.363.1949-.2488.2924-.6219.2924-1.1194V30.121h1.4926v4.1549c0 .5177-.0505.9682-.1513 1.3514-.0941.3765-.2521.6891-.474.9379-.2219.242-.5076.4235-.8572.5445-.3496.1143-.7765.1715-1.2808.1715-.5042 0-.9311-.0572-1.2807-.1715-.3496-.121-.6354-.3025-.8572-.5445-.2219-.2488-.3832-.5614-.4841-.9379-.0941-.3832-.1412-.8337-.1412-1.3514V30.121h1.4926zM95.3806 31.4825v5.6777h-1.5329v-5.6777h-1.906V30.121h5.3449v1.3615h-1.906zM104.164 34.2759h-2.682v2.8843h-1.5332V30.121h1.5332v2.8036h2.682V30.121h1.533v7.0392h-1.533v-2.8843zM108.86 37.1602V30.121h4.79v1.3615h-3.257v1.4421h2.793v1.3513h-2.793v1.5228h3.257v1.3615h-4.79zM118.747 33.8322l-.675-1.4119h-.031v4.7399h-1.442V30.121h1.674l1.926 3.328.676 1.4118h.03V30.121h1.443v7.0392h-1.675l-1.926-3.328zM128.445 31.4825v5.6777h-1.533v-5.6777h-1.906V30.121h5.345v1.3615h-1.906zM132.702 37.1602v-1.2203h.907v-4.5986h-.907V30.121h3.348v1.2203h-.908v4.5986h.908v1.2203h-3.348zM141.784 37.2812c-.477 0-.907-.074-1.29-.2219-.384-.1546-.71-.3798-.979-.6757-.269-.3025-.477-.6756-.625-1.1194-.148-.4504-.222-.9748-.222-1.5732 0-.5916.074-1.116.222-1.5732.148-.4639.356-.8505.625-1.1597.269-.316.595-.5547.979-.7161.383-.1613.813-.242 1.29-.242.653 0 1.19.1345 1.614.4034.424.2622.763.679 1.018 1.2505l-1.321.6858c-.094-.2959-.242-.5312-.443-.706-.195-.1815-.484-.2723-.868-.2723-.45 0-.813.1479-1.089.4438-.269.2891-.403.7126-.403 1.2706v1.1295c0 .5581.134.985.403 1.2808.276.2891.639.4336 1.089.4336.377 0 .676-.1008.898-.3025.229-.2084.397-.4572.504-.7463l1.251.7261c-.263.5379-.609.9547-1.039 1.2505-.424.2891-.961.4337-1.614.4337zM153.399 37.2812c-.619 0-1.143-.1042-1.573-.3126-.431-.2152-.797-.4908-1.1-.827l1.009-1.0186c.477.5379 1.066.8068 1.765.8068.376 0 .655-.0773.837-.2319.181-.1547.272-.3597.272-.6152 0-.195-.054-.3563-.161-.4841-.108-.1344-.326-.2252-.656-.2722l-.696-.0908c-.746-.0941-1.294-.3194-1.643-.6757-.343-.3563-.515-.8303-.515-1.4219 0-.316.061-.6051.182-.8673s.292-.4875.514-.6757c.229-.1882.504-.3328.827-.4336.33-.1076.703-.1614 1.119-.1614.532 0 .999.084 1.402.2521.404.1681.75.4135 1.039.7362l-1.019 1.0286c-.168-.1949-.373-.3529-.615-.4739-.235-.1278-.534-.1916-.897-.1916-.343 0-.599.0605-.767.1815-.168.121-.252.2891-.252.5042 0 .2421.064.4169.192.5244.134.1076.349.1849.645.232l.696.1109c.726.1143 1.264.3395 1.614.6757.349.3294.524.8.524 1.4118 0 .3362-.061.6455-.182.9278-.121.2824-.299.5244-.534.7261-.229.2017-.514.3597-.857.474-.343.1076-.733.1614-1.17.1614zM161.174 33.8322l-.675-1.4119h-.03v4.7399h-1.443V30.121h1.674l1.927 3.328.675 1.4118h.031V30.121h1.442v7.0392h-1.674l-1.927-3.328zM167.938 37.1602V30.121h4.79v1.3615h-3.257v1.4421h2.793v1.3513h-2.793v1.5228h3.257v1.3615h-4.79zM180.013 37.1602l-.504-1.6741h-2.35l-.504 1.6741h-1.553l2.32-7.0392h1.895l2.29 7.0392h-1.594zm-1.664-5.6475h-.05l-.777 2.6725h1.614l-.787-2.6725zM186.645 34.0944l-.918 1.1093v1.9565h-1.533V30.121h1.533v3.3481h.061l.998-1.3614 1.583-1.9867h1.735l-2.37 2.8943 2.582 4.1449h-1.806l-1.865-3.0658zM192.83 37.1602V30.121h4.79v1.3615h-3.257v1.4421h2.793v1.3513h-2.793v1.5228h3.257v1.3615h-4.79zM202.102 37.1602h-1.533V30.121h3.338c.323 0 .615.0538.877.1614.262.1075.484.2622.666.4639.188.1949.333.4303.434.7059.1.2757.151.5816.151.9177 0 .4774-.108.8942-.323 1.2505-.208.3563-.528.6152-.958.7765l1.382 2.7633h-1.705l-1.23-2.5817h-1.099v2.5817zm1.613-3.8726c.229 0 .407-.0571.535-.1714.134-.121.201-.2958.201-.5244v-.4438c0-.2285-.067-.4-.201-.5143-.128-.121-.306-.1815-.535-.1815h-1.613v1.8354h1.613zM211.257 37.2812c-.619 0-1.143-.1042-1.573-.3126-.431-.2152-.797-.4908-1.1-.827l1.009-1.0186c.477.5379 1.066.8068 1.765.8068.376 0 .655-.0773.837-.2319.181-.1547.272-.3597.272-.6152 0-.195-.054-.3563-.161-.4841-.108-.1344-.326-.2252-.656-.2722l-.696-.0908c-.746-.0941-1.294-.3194-1.643-.6757-.343-.3563-.515-.8303-.515-1.4219 0-.316.061-.6051.182-.8673s.292-.4875.514-.6757c.229-.1882.504-.3328.827-.4336.33-.1076.703-.1614 1.119-.1614.532 0 .999.084 1.402.2521.404.1681.75.4135 1.039.7362l-1.019 1.0286c-.168-.1949-.373-.3529-.615-.4739-.235-.1278-.534-.1916-.897-.1916-.343 0-.599.0605-.767.1815-.168.121-.252.2891-.252.5042 0 .2421.064.4169.192.5244.134.1076.349.1849.645.232l.696.1109c.726.1143 1.264.3395 1.614.6757.349.3294.524.8.524 1.4118 0 .3362-.061.6455-.182.9278-.121.2824-.299.5244-.534.7261-.229.2017-.514.3597-.857.474-.343.1076-.733.1614-1.17.1614z" fill="#79797E"/>
  <defs>
    <clipPath id="clip0">
      <path d="M0 0h214v20.7767H0V0z" fill="#fff"/>
    </clipPath>
  </defs>
</svg>
